<?xml version="1.0" encoding="utf-8"?>
<!-- Generator: Adobe Illustrator 23.0.1, SVG Export Plug-In . SVG Version: 6.00 Build 0)  -->
<svg id="words" version="1.1" xmlns="http://www.w3.org/2000/svg" xmlns:xlink="http://www.w3.org/1999/xlink" x="0px" y="0px"
	 viewBox="0 0 138.5 175" style="enable-background:new 0 0 138.5 175;" xml:space="preserve">
<style type="text/css">
	.st0{fill:#FFFFFF;}
</style>
<g id="_x31_0">
	<g>
		<path class="st0" d="M1037.88,800.52c-71.93,0-143.87,0-215.88,0c0-71.88,0-143.77,0-215.8c71.91,0,143.89,0,215.88,0
			C1037.88,656.61,1037.88,728.56,1037.88,800.52z M874.88,704.5c0.4,0.24,0.81,0.47,1.21,0.71c-0.66,13.07-1.12,26.16-2.07,39.21
			c-0.53,7.27-2.37,8.23-9.68,6.66c-3.02-0.65-6.06-1.18-9.55-1.85c6.42,7.93,12.15,15.08,17.98,22.16c1.83,2.22,3.71,1.71,5.7-0.12
			c6.56-6.04,6.81-14.12,6.88-22.04c0.13-14.64,0.18-29.3-0.54-43.91c-0.32-6.61,1.96-10.73,7.24-14.06
			c2.52-1.59,4.61-3.88,6.89-5.85c-0.4-0.66-0.79-1.32-1.19-1.98c-3.92,1.98-7.84,3.97-11.65,5.89c0-6.93,0-13.71,0-20.13
			c6.4-1.24,12.33-2.27,18.18-3.62c1.35-0.31,2.45-1.69,3.67-2.57c-0.89-1.2-1.58-3.16-2.71-3.46c-3.53-0.92-7.22-1.63-10.84-1.59
			c-2.32,0.03-4.63,1.53-7.77,2.67c1.66-11.67,0.72-22.99,6.4-33.04c1.9-3.36,1.83-6.47-1.14-8.36c-3.92-2.49-8.29-4.59-12.75-5.85
			c-4.94-1.4-6.49,0.27-4.99,5.02c4.47,14.12,3,28.58,3.15,43.85c-10.34,1.65-20.62,3.28-30.91,4.92c0.01,0.54,0.01,1.08,0.02,1.62
			c9.45,7.77,20.42,1.29,30.25,1.72c0,7.47,0.12,14.46-0.1,21.43c-0.04,1.42-1.01,3.46-2.17,4.09c-11.4,6.2-22.89,12.23-34.45,18.13
			c-2.7,1.38-5.76,2.06-9.12,3.23c1.24,1.96,1.94,3.37,2.92,4.56c6.38,7.71,11.08,7.63,18.45,0.99
			C859.44,716.41,867.3,710.61,874.88,704.5z M949.76,641.34c0.42-0.2,0.84-0.4,1.26-0.6c0.35-2.76,2-6.67,0.78-8.07
			c-2.98-3.4-7.08-6.03-11.14-8.21c-2.8-1.51-4.46,0.31-4.03,3.54c0.93,7.07-1.36,13.44-4.21,19.71
			c-9.79,21.49-22.25,41.21-38.36,58.56c-1.03,1.11-1.71,2.53-2.56,3.81c0.33,0.26,0.65,0.52,0.98,0.78
			c12.59-6.89,23.64-15.93,32.09-27.45c8.34-11.37,15.28-23.77,22.94-35.87c0.52,0.68,1.11,1.38,1.62,2.13
			c9.64,14.09,19.16,28.26,28.94,42.25c4.92,7.03,11.45,11.31,20.59,10.23c5.98-0.7,11.99-1.07,17.98-1.74
			c3.36-0.38,6.68-1.08,11.27-1.84c-15.25-8.14-29.65-14.98-43.17-23.27C970.69,666.66,960.22,653.89,949.76,641.34z M979.24,760.7
			c-5.64-5.4-2.2-10.04-0.56-14.45c2.17-5.83,5.17-11.35,7.65-17.07c0.51-1.18,0.8-2.8,0.41-3.96c-1.41-4.22-11.07-9.02-15.52-8.05
			c-10.51,2.28-20.98,4.85-31.59,6.59c-7.65,1.26-15.43,3.22-23.3,0.23c-1.76-0.67-4.15,0.33-5.7,0.5
			c2.18,5.12,4.61,9.22,5.64,13.64c1.33,5.67,1.49,11.61,2.24,17.43c0.55,4.24,1.03,8.51,1.99,12.67c0.27,1.15,2.17,1.92,3.32,2.86
			c0.75-1.01,2.13-2.02,2.13-3.02c0-4.41,2.89-4.67,6.09-4.78c9.22-0.32,18.45-0.57,27.66-1.04
			C965.81,761.92,971.88,761.28,979.24,760.7z M920.73,696.28c-0.25,0.52-0.5,1.03-0.75,1.55c2.69,1.07,5.47,3.26,8.04,3.03
			c13.17-1.16,26.3-2.88,39.41-4.62c1.25-0.17,2.29-1.84,3.43-2.81c-1.09-1.2-1.96-2.88-3.32-3.51c-4.03-1.88-8.08-2.46-12.75-1.23
			C943.55,691.63,932.1,693.8,920.73,696.28z"/>
		<path d="M874.88,704.5c-7.58,6.11-15.45,11.91-22.67,18.42c-7.37,6.64-12.07,6.72-18.45-0.99c-0.98-1.18-1.68-2.6-2.92-4.56
			c3.36-1.17,6.42-1.85,9.12-3.23c11.56-5.9,23.05-11.93,34.45-18.13c1.16-0.63,2.13-2.67,2.17-4.09c0.22-6.97,0.1-13.96,0.1-21.43
			c-9.83-0.42-20.79,6.05-30.25-1.72c-0.01-0.54-0.01-1.08-0.02-1.62c10.28-1.64,20.57-3.27,30.91-4.92
			c-0.16-15.27,1.32-29.73-3.15-43.85c-1.5-4.75,0.05-6.42,4.99-5.02c4.46,1.26,8.83,3.36,12.75,5.85c2.97,1.89,3.04,5,1.14,8.36
			c-5.68,10.05-4.74,21.37-6.4,33.04c3.14-1.14,5.45-2.64,7.77-2.67c3.62-0.04,7.32,0.67,10.84,1.59c1.13,0.29,1.82,2.26,2.71,3.46
			c-1.22,0.89-2.32,2.26-3.67,2.57c-5.86,1.34-11.78,2.38-18.18,3.62c0,6.42,0,13.2,0,20.13c3.8-1.92,7.73-3.91,11.65-5.89
			c0.4,0.66,0.79,1.32,1.19,1.98c-2.28,1.97-4.37,4.26-6.89,5.85c-5.28,3.33-7.57,7.45-7.24,14.06c0.71,14.61,0.67,29.27,0.54,43.91
			c-0.07,7.92-0.32,16-6.88,22.04c-1.99,1.83-3.87,2.34-5.7,0.12c-5.83-7.08-11.56-14.24-17.98-22.16c3.48,0.67,6.53,1.2,9.55,1.85
			c7.31,1.56,9.16,0.6,9.68-6.66c0.95-13.05,1.41-26.13,2.07-39.21C875.69,704.97,875.29,704.73,874.88,704.5z"/>
		<path d="M949.76,641.34c10.45,12.56,20.92,25.33,34.98,33.95c13.51,8.29,27.92,15.13,43.17,23.27c-4.59,0.76-7.92,1.46-11.27,1.84
			c-5.98,0.67-12,1.04-17.98,1.74c-9.14,1.07-15.67-3.2-20.59-10.23c-9.78-13.99-19.3-28.16-28.94-42.25
			c-0.51-0.75-1.1-1.45-1.62-2.13c-7.66,12.1-14.6,24.5-22.94,35.87c-8.45,11.53-19.49,20.56-32.09,27.45
			c-0.33-0.26-0.65-0.52-0.98-0.78c0.84-1.28,1.53-2.7,2.56-3.81c16.11-17.35,28.57-37.08,38.36-58.56
			c2.85-6.26,5.14-12.64,4.21-19.71c-0.43-3.23,1.23-5.04,4.03-3.54c4.06,2.18,8.16,4.81,11.14,8.21c1.22,1.39-0.43,5.3-0.78,8.07
			C950.61,640.94,950.18,641.14,949.76,641.34z"/>
		<path d="M979.24,760.7c-7.36,0.59-13.43,1.22-19.52,1.53c-9.21,0.47-18.44,0.72-27.66,1.04c-3.2,0.11-6.09,0.37-6.09,4.78
			c0,1.01-1.39,2.02-2.13,3.02c-1.15-0.94-3.05-1.71-3.32-2.86c-0.97-4.15-1.45-8.42-1.99-12.67c-0.75-5.81-0.91-11.76-2.24-17.43
			c-1.03-4.42-3.46-8.51-5.64-13.64c1.55-0.17,3.94-1.17,5.7-0.5c7.87,2.99,15.65,1.03,23.3-0.23c10.6-1.74,21.07-4.32,31.59-6.59
			c4.45-0.96,14.12,3.83,15.52,8.05c0.39,1.16,0.1,2.78-0.41,3.96c-2.49,5.72-5.49,11.24-7.65,17.07
			C977.04,750.66,973.6,755.29,979.24,760.7z M925.4,731.63c0.47,8.62,0.92,16.62,1.36,24.75c1.31,0.09,2.09,0.25,2.86,0.18
			c10.58-0.99,21.15-1.95,31.72-3.08c2.23-0.24,3.92-1.17,4.25-4.07c0.43-3.74,1.71-7.37,2.49-11.08
			c2.67-12.78,2.29-13.61-10.58-12.2C946.71,727.31,936.04,729.76,925.4,731.63z"/>
		<path d="M920.73,696.28c11.37-2.48,22.81-4.65,34.06-7.59c4.68-1.22,8.72-0.64,12.75,1.23c1.36,0.63,2.23,2.31,3.32,3.51
			c-1.14,0.97-2.18,2.64-3.43,2.81c-13.11,1.74-26.24,3.46-39.41,4.62c-2.57,0.23-5.36-1.96-8.04-3.03
			C920.23,697.31,920.48,696.8,920.73,696.28z"/>
		<path class="st0" d="M925.4,731.63c10.64-1.87,21.31-4.32,32.11-5.5c12.87-1.41,13.25-0.58,10.58,12.2
			c-0.78,3.71-2.06,7.34-2.49,11.08c-0.33,2.9-2.03,3.84-4.25,4.07c-10.56,1.12-21.14,2.09-31.72,3.08
			c-0.77,0.07-1.55-0.09-2.86-0.18C926.32,748.25,925.87,740.25,925.4,731.63z"/>
	</g>
</g>
<g id="_x39_">
	<g>
		<path class="st0" d="M710.29,891.77c-85.81,0-171.67,0-257.56,0c0-85.85,0-171.71,0-257.62c85.81,0,171.63,0,257.56,0
			C710.29,719.98,710.29,805.87,710.29,891.77z M549.15,774.88c0.4,0.41,0.8,0.82,1.2,1.23c2.88-2.25,5.81-4.44,8.63-6.76
			c12.46-10.25,21.34-23.34,29.16-37.22c1.41-2.49,3.11-3.24,5.9-3.59c6.73-0.85,13.39-2.32,20.07-3.59
			c1.11-0.21,2.14-0.83,3.25-1.01c4.28-0.71,6.41,1.47,5.24,5.62c-0.98,3.49-2.22,6.94-3.67,10.26
			c-12.34,28.37-29.62,53.6-49.81,76.84c-11.56,13.3-25.33,24.3-39.02,35.33c-1.77,1.42-3.33,3.1-4.99,4.66
			c0.27,0.45,0.53,0.89,0.8,1.34c4.73-1.72,9.65-3.03,14.15-5.22c20.08-9.79,35.99-24.71,50.09-41.71
			c5.2-6.27,10.08-12.79,15.23-19.36c0.52,0.77,0.91,1.31,1.27,1.88c8.89,13.9,17.59,27.93,26.76,41.64
			c4.29,6.42,9.44,12.27,14.36,18.25c2.37,2.88,5.7,3.91,9.41,4.13c11.14,0.66,21.6-2.7,32.19-5.28c0.98-0.24,1.81-1.06,2.85-1.69
			c-0.57-0.76-0.76-1.26-1.11-1.44c-3.41-1.8-6.79-3.69-10.29-5.3c-11.59-5.3-23.46-10.04-33.51-18.21
			c-13.79-11.21-25.37-24.56-36.99-37.88c-0.55-0.63-0.54-2.34-0.09-3.15c3.54-6.36,7.25-12.63,10.92-18.92
			c7.38-12.66,13.29-26.28,23.7-37.01c0.78-0.8,1.34-1.84,1.91-2.82c1.31-2.22,1.27-4.68-0.58-6.28c-5.96-5.18-12.51-9.6-20.92-7.46
			c-5.47,1.39-10.6,4.03-16.01,5.72c-4.91,1.54-9.98,2.55-14.98,3.79c-0.28-0.37-0.56-0.74-0.84-1.1
			c3.83-7.32,7.68-14.64,11.47-21.99c0.54-1.05,1.27-2.37,1.05-3.37c-0.87-3.94-11.29-11.41-15.38-11.36
			c-2.11,0.03-3.04,0.93-3.14,3.09c-0.15,3.29-0.04,6.72-0.94,9.84c-2.57,8.93-5.19,17.89-8.54,26.55
			c-5.81,15-13.19,29.25-22.36,42.52C553.51,768.91,551.31,771.88,549.15,774.88z M512.51,811.63c-8.93,2.88-18.18,5.99-27.52,8.8
			c-3.56,1.07-7.31,1.67-11.02,2.08c-4.09,0.45-4.95,1.53-2.78,5.15c3.14,5.24,7.86,8.88,13.41,11.23c1.44,0.61,3.84,0.25,5.25-0.58
			c9.78-5.81,19.22-12.23,29.16-17.76c12.51-6.97,25.4-13.26,38.07-19.94c0.92-0.48,1.43-1.74,2.13-2.64
			c-1.16-0.28-2.46-1.04-3.45-0.75c-5.88,1.73-11.69,3.69-17.52,5.6c-4.13,1.35-8.25,2.74-12.16,4.04c0-10-0.02-19.56,0.01-29.11
			c0.02-8.7,0.05-8.69,8.53-10.77c4.52-1.11,9.09-2.09,13.53-3.47c1.27-0.4,2.17-1.98,3.25-3.01c-0.99-0.81-1.86-2.02-2.99-2.36
			c-3.25-0.98-6.59-2.16-9.91-2.21c-3.84-0.06-7.7,0.99-11.88,1.61c0.5-7.92,0.49-16.07,1.68-24.04c0.9-6.06,2.27-11.45-6.39-13.02
			c6.07-1.55,11.6-2.6,17.06-3.98c4.49-1.13,8.95-2.49,13.31-4.06c2.44-0.88,2.73-2.74,0.57-4.39c-4.65-3.55-9.74-5.24-15.61-3.39
			c-5.3,1.67-10.57,3.57-15.98,4.77c-13.09,2.91-26.27,5.45-39.4,8.22c-1.14,0.24-2.18,1-3.26,1.51c-0.01,0.49-0.03,0.97-0.04,1.46
			c2.51,1.09,4.95,2.89,7.53,3.11c5.43,0.45,10.95,0.42,16.38-0.06c6.14-0.54,6.24-0.76,7.87,5.3c0.15,0.55,0.41,1.09,0.45,1.65
			c0.74,10.21,1.46,20.42,2.19,30.68c-3.64,0.91-6.47,1.74-9.35,2.31c-6.02,1.21-12.08,2.24-18.1,3.47
			c-0.97,0.2-2.58,1.18-2.53,1.67c0.1,1.06,0.92,2.21,1.76,3c0.7,0.66,1.81,1.15,2.77,1.21c4.63,0.3,9.28,0.7,13.9,0.53
			c3.54-0.13,7.05-1.04,11.13-1.7C512.51,785.18,512.51,798.05,512.51,811.63z"/>
		<path d="M549.15,774.88c2.16-3,4.37-5.98,6.47-9.02c9.17-13.27,16.55-27.52,22.36-42.52c3.35-8.66,5.97-17.62,8.54-26.55
			c0.9-3.11,0.79-6.54,0.94-9.84c0.1-2.16,1.03-3.06,3.14-3.09c4.09-0.05,14.51,7.42,15.38,11.36c0.22,1-0.51,2.33-1.05,3.37
			c-3.79,7.35-7.64,14.66-11.47,21.99c0.28,0.37,0.56,0.74,0.84,1.1c5-1.24,10.07-2.26,14.98-3.79c5.41-1.69,10.54-4.33,16.01-5.72
			c8.41-2.14,14.96,2.28,20.92,7.46c1.85,1.6,1.89,4.06,0.58,6.28c-0.58,0.98-1.14,2.01-1.91,2.82
			c-10.41,10.73-16.31,24.34-23.7,37.01c-3.67,6.29-7.38,12.56-10.92,18.92c-0.45,0.81-0.46,2.52,0.09,3.15
			c11.62,13.32,23.2,26.66,36.99,37.88c10.05,8.17,21.91,12.92,33.51,18.21c3.51,1.6,6.88,3.49,10.29,5.3
			c0.35,0.19,0.54,0.69,1.11,1.44c-1.04,0.63-1.87,1.46-2.85,1.69c-10.59,2.58-21.05,5.94-32.19,5.28
			c-3.71-0.22-7.05-1.25-9.41-4.13c-4.92-5.98-10.06-11.84-14.36-18.25c-9.18-13.71-17.87-27.74-26.76-41.64
			c-0.36-0.56-0.75-1.11-1.27-1.88c-5.15,6.57-10.04,13.09-15.23,19.36c-14.1,17-30.01,31.92-50.09,41.71
			c-4.5,2.19-9.42,3.51-14.15,5.22c-0.27-0.45-0.53-0.89-0.8-1.34c1.66-1.56,3.23-3.24,4.99-4.66
			c13.69-11.03,27.46-22.03,39.02-35.33c20.19-23.24,37.48-48.47,49.81-76.84c1.45-3.33,2.68-6.77,3.67-10.26
			c1.17-4.15-0.96-6.33-5.24-5.62c-1.11,0.18-2.14,0.8-3.25,1.01c-6.68,1.27-13.33,2.74-20.07,3.59c-2.79,0.35-4.49,1.1-5.9,3.59
			c-7.82,13.88-16.7,26.97-29.16,37.22c-2.82,2.32-5.75,4.51-8.63,6.76C549.95,775.7,549.55,775.29,549.15,774.88z"/>
		<path d="M512.51,811.63c0-13.57,0-26.45,0-39.85c-4.08,0.65-7.59,1.57-11.13,1.7c-4.62,0.17-9.27-0.23-13.9-0.53
			c-0.96-0.06-2.08-0.55-2.77-1.21c-0.83-0.79-1.66-1.94-1.76-3c-0.05-0.49,1.56-1.47,2.53-1.67c6.02-1.24,12.08-2.26,18.1-3.47
			c2.88-0.58,5.71-1.4,9.35-2.31c-0.73-10.26-1.44-20.48-2.19-30.68c-0.04-0.56-0.3-1.1-0.45-1.65c-1.63-6.06-1.73-5.84-7.87-5.3
			c-5.43,0.48-10.95,0.51-16.38,0.06c-2.58-0.22-5.03-2.02-7.53-3.11c0.01-0.49,0.03-0.97,0.04-1.46c1.09-0.52,2.12-1.27,3.26-1.51
			c13.13-2.76,26.3-5.31,39.4-8.22c5.41-1.2,10.68-3.1,15.98-4.77c5.88-1.85,10.97-0.15,15.61,3.39c2.16,1.64,1.87,3.51-0.57,4.39
			c-4.36,1.57-8.82,2.93-13.31,4.06c-5.45,1.37-10.99,2.42-17.06,3.98c8.66,1.57,7.29,6.96,6.39,13.02
			c-1.18,7.97-1.18,16.12-1.68,24.04c4.18-0.62,8.04-1.67,11.88-1.61c3.32,0.05,6.66,1.24,9.91,2.21c1.13,0.34,2,1.55,2.99,2.36
			c-1.07,1.04-1.97,2.62-3.25,3.01c-4.44,1.38-9.01,2.37-13.53,3.47c-8.48,2.08-8.51,2.07-8.53,10.77
			c-0.03,9.56-0.01,19.11-0.01,29.11c3.91-1.3,8.03-2.69,12.16-4.04c5.83-1.91,11.64-3.87,17.52-5.6c0.99-0.29,2.29,0.47,3.45,0.75
			c-0.7,0.9-1.21,2.16-2.13,2.64c-12.67,6.68-25.56,12.97-38.07,19.94c-9.93,5.53-19.37,11.95-29.16,17.76
			c-1.41,0.84-3.81,1.19-5.25,0.58c-5.54-2.35-10.27-5.99-13.41-11.23c-2.17-3.62-1.31-4.7,2.78-5.15c3.71-0.41,7.46-1,11.02-2.08
			C494.33,817.62,503.58,814.5,512.51,811.63z"/>
	</g>
</g>
<g id="_x38_">
	<g>
		<path class="st0" d="M68.28,827.09c0-60.94,0-121.87,0-182.81c60.94,0,121.87,0,182.81,0c0,60.94,0,121.87,0,182.81
			C190.15,827.09,129.21,827.09,68.28,827.09z M120.85,717.12c0,7.35,0.04,14.2-0.06,21.06c-0.01,0.78-0.59,1.92-1.23,2.26
			c-9.37,4.91-18.77,9.77-28.23,14.51c-2.15,1.08-4.53,1.68-6.81,2.5c1.93,2.32,3.84,4.66,5.82,6.93c0.32,0.37,1,0.4,1.43,0.71
			c3.22,2.27,5.36,1.32,8.26-1.32c6.09-5.55,12.86-10.33,19.36-15.43c0.46,0.21,0.91,0.42,1.37,0.63
			c-0.82,11.16-1.51,22.34-2.56,33.48c-0.28,2.96-2.88,3.14-5.37,2.46c-3.93-1.07-7.86-2.15-11.8-3.22c-0.2,0.33-0.4,0.65-0.6,0.98
			c0.81,0.94,1.6,1.89,2.43,2.81c4.31,4.77,8.81,9.39,12.88,14.36c2.97,3.62,6.11,3.93,8.12-0.45c2.02-4.4,3.88-9.29,4.09-14.04
			c0.56-12.64,0.36-25.33,0.09-37.99c-0.09-3.95,1.03-6.45,4.33-8.62c4.51-2.96,8.68-6.46,13-9.72c-3.62-1.9-5.66,0.56-8.06,1.79
			c-2.68,1.38-5.35,2.79-8.76,4.56c0.41-6.8,0.7-12.8,1.24-18.77c0.07-0.74,1.43-1.69,2.37-1.96c3.47-0.98,7.03-1.62,10.5-2.6
			c0.88-0.25,2.21-1.37,2.15-1.96c-0.1-0.99-0.97-2.19-1.87-2.74c-2.81-1.74-5.8-2.7-9.1-1.1c-1.16,0.56-2.47,0.8-3.78,1.2
			c-1-9.89,0.54-22.11,4.07-31.17c1.18-3.02,0.75-5.34-2.13-6.82c-3.02-1.55-6.12-2.99-9.3-4.15c-1.18-0.43-3.17-0.46-3.92,0.25
			c-0.73,0.68-0.74,2.69-0.36,3.89c4.18,13.21,3.3,26.68,2.7,40.41c-8.59,1.47-16.8,2.87-25.01,4.27
			C103.65,722.03,112.4,716.95,120.85,717.12z M144.16,691.22c1.98,3.26,4.1,5.64,4.96,8.41c1.52,4.95,2.25,10.15,3.37,15.23
			c0.58,2.6,0.5,5.96,2.12,7.59c3.26,3.28,2.32,6.44,1.25,9.83c-4.62,14.48-12.08,27.4-21.72,39.1c-1.52,1.84-2.98,3.72-5.16,6.44
			c1.67-0.38,2.04-0.39,2.35-0.54c0.72-0.36,1.44-0.74,2.09-1.21c10.9-7.8,19.58-17.47,25.34-29.68c0.63-1.33,1.72-2.98,2.96-3.4
			c3.39-1.14,6.95-2,10.5-2.41c3.94-0.45,5.58,1.17,5.21,5.17c-1.01,10.97-3.18,21.72-7.43,31.94c-1.59,3.81-4.01,4.53-7.84,2.7
			c-2.08-1-4.1-2.14-6.71-3.51c0.22,1.28,0.18,1.83,0.41,2.23c2.14,3.71,4.44,7.33,6.46,11.11c1.93,3.6,4.09,4.51,7.26,1.96
			c2.45-1.97,5.1-4.31,6.3-7.07c2.37-5.47,3.94-11.3,5.56-17.06c2.41-8.53,2.14-17.77,6.89-25.72c0.44-0.75-0.1-2.56-0.77-3.4
			c-2.86-3.6-8.54-4.8-12.86-3.43c-3.57,1.13-7.3,1.72-11.92,2.77c1.58-2.82,2.37-4.87,3.7-6.46c2.34-2.79,1.18-4.62-1.22-6.28
			c-1.8-1.25-3.67-2.39-6.26-4.07c8.67-1.15,16.36-2.16,25.18-3.33c-1.88-1.74-2.96-2.74-4.59-4.25c3.2-6.42,6.56-13.02,9.74-19.71
			c0.48-1.01,0.63-2.69,0.1-3.56c-2.3-3.81-10.12-5.52-14.29-3.85c-7.92,3.18-15.91,6.28-24.79,4.53
			C148.58,690.92,146.7,691.22,144.16,691.22z M199.94,784.8c-0.21,0.44-0.42,0.87-0.63,1.31c0.46,0.6,0.89,1.23,1.4,1.78
			c4.91,5.33,9.78,10.69,14.79,15.94c1.49,1.56,4,4.26,4.91,3.86c2.2-0.97,4.2-3.2,5.41-5.4c1.17-2.14,1.6-4.85,1.74-7.34
			c0.26-4.66,0.04-9.35,0.08-14.03c0.26-28.82,0.4-57.63,0.93-86.44c0.09-4.83,1.55-9.75,3.06-14.41c0.92-2.86,0.57-5.03-1.75-6.24
			c-4-2.08-8.2-3.94-12.51-5.24c-3.27-0.98-4.84,0.98-3.32,3.99c4.43,8.72,4.78,18.06,4.67,27.5c-0.24,20.45-0.49,40.9-0.82,61.35
			c-0.11,6.95-0.46,13.9-0.73,20.84c-0.25,6.19-2.15,7.59-8.05,5.77C206.02,787.08,203,785.88,199.94,784.8z M199.61,759.44
			c3.33-3.37,4.29-7.05,4.38-11.44c0.21-10.68,0.7-21.36,1.5-32.01c0.21-2.77-0.21-4.44-2.67-5.42c-1.6-0.64-3.25-1.23-4.93-1.53
			c-3.9-0.7-4.44,0.1-3.66,3.92c0.83,4.04,1.78,8.15,1.81,12.23c0.07,7.91-0.37,15.83-0.8,23.73
			C195.01,752.98,196.42,756.19,199.61,759.44z"/>
		<path d="M120.85,717.12c-8.44-0.17-17.19,4.91-24.76-2.99c8.21-1.4,16.42-2.8,25.01-4.27c0.6-13.73,1.47-27.2-2.7-40.41
			c-0.38-1.2-0.36-3.2,0.36-3.89c0.75-0.71,2.74-0.69,3.92-0.25c3.18,1.17,6.29,2.6,9.3,4.15c2.87,1.48,3.31,3.79,2.13,6.82
			c-3.53,9.06-5.06,21.28-4.07,31.17c1.31-0.41,2.62-0.64,3.78-1.2c3.3-1.6,6.3-0.65,9.1,1.1c0.89,0.55,1.76,1.75,1.87,2.74
			c0.06,0.59-1.27,1.71-2.15,1.96c-3.47,0.98-7.03,1.62-10.5,2.6c-0.93,0.26-2.3,1.22-2.37,1.96c-0.55,5.97-0.83,11.97-1.24,18.77
			c3.41-1.78,6.08-3.18,8.76-4.56c2.4-1.24,4.44-3.69,8.06-1.79c-4.32,3.27-8.49,6.76-13,9.72c-3.3,2.17-4.42,4.67-4.33,8.62
			c0.27,12.66,0.47,25.35-0.09,37.99c-0.21,4.75-2.07,9.63-4.09,14.04c-2.01,4.38-5.15,4.07-8.12,0.45
			c-4.08-4.97-8.57-9.58-12.88-14.36c-0.83-0.92-1.62-1.87-2.43-2.81c0.2-0.33,0.4-0.65,0.6-0.98c3.93,1.07,7.86,2.15,11.8,3.22
			c2.49,0.68,5.09,0.49,5.37-2.46c1.05-11.14,1.74-22.32,2.56-33.48c-0.46-0.21-0.91-0.42-1.37-0.63
			c-6.49,5.1-13.27,9.89-19.36,15.43c-2.9,2.65-5.05,3.59-8.26,1.32c-0.43-0.3-1.11-0.34-1.43-0.71c-1.98-2.28-3.89-4.62-5.82-6.93
			c2.28-0.82,4.66-1.42,6.81-2.5c9.46-4.74,18.86-9.6,28.23-14.51c0.65-0.34,1.22-1.48,1.23-2.26
			C120.89,731.33,120.85,724.47,120.85,717.12z"/>
		<path d="M144.16,691.22c2.55,0,4.43-0.3,6.18,0.05c8.89,1.75,16.87-1.35,24.79-4.53c4.17-1.68,11.99,0.04,14.29,3.85
			c0.53,0.87,0.38,2.56-0.1,3.56c-3.18,6.69-6.54,13.29-9.74,19.71c1.63,1.51,2.71,2.51,4.59,4.25c-8.82,1.17-16.51,2.18-25.18,3.33
			c2.59,1.68,4.46,2.82,6.26,4.07c2.4,1.67,3.56,3.5,1.22,6.28c-1.33,1.59-2.12,3.64-3.7,6.46c4.62-1.05,8.36-1.65,11.92-2.77
			c4.33-1.37,10.01-0.17,12.86,3.43c0.67,0.85,1.21,2.66,0.77,3.4c-4.74,7.95-4.48,17.19-6.89,25.72
			c-1.63,5.76-3.2,11.59-5.56,17.06c-1.2,2.76-3.85,5.1-6.3,7.07c-3.17,2.54-5.33,1.64-7.26-1.96c-2.02-3.77-4.32-7.4-6.46-11.11
			c-0.23-0.4-0.19-0.95-0.41-2.23c2.61,1.37,4.62,2.51,6.71,3.51c3.82,1.83,6.25,1.11,7.84-2.7c4.25-10.22,6.43-20.96,7.43-31.94
			c0.37-4-1.27-5.62-5.21-5.17c-3.55,0.4-7.11,1.27-10.5,2.41c-1.24,0.42-2.33,2.06-2.96,3.4c-5.76,12.21-14.44,21.89-25.34,29.68
			c-0.65,0.47-1.37,0.85-2.09,1.21c-0.31,0.16-0.69,0.17-2.35,0.54c2.18-2.72,3.64-4.6,5.16-6.44c9.65-11.7,17.11-24.62,21.72-39.1
			c1.08-3.39,2.01-6.54-1.25-9.83c-1.62-1.63-1.54-4.99-2.12-7.59c-1.12-5.08-1.85-10.28-3.37-15.23
			C148.26,696.86,146.14,694.48,144.16,691.22z M159.55,716.32c3.85-0.9,7.23-1.58,10.53-2.53c0.96-0.28,2.22-1.19,2.45-2.06
			c1.26-4.64,2.31-9.35,3.27-14.06c0.39-1.92-0.13-3.76-2.63-3.4c-5.37,0.78-10.71,1.79-16.23,2.73
			C157.85,703.78,158.69,709.96,159.55,716.32z"/>
		<path d="M199.94,784.8c3.06,1.09,6.08,2.28,9.17,3.23c5.9,1.82,7.8,0.42,8.05-5.77c0.28-6.95,0.62-13.89,0.73-20.84
			c0.33-20.45,0.58-40.9,0.82-61.35c0.11-9.44-0.24-18.77-4.67-27.5c-1.53-3.01,0.04-4.97,3.32-3.99c4.31,1.3,8.51,3.15,12.51,5.24
			c2.32,1.21,2.67,3.38,1.75,6.24c-1.5,4.66-2.97,9.57-3.06,14.41c-0.53,28.81-0.68,57.63-0.93,86.44
			c-0.04,4.68,0.18,9.37-0.08,14.03c-0.14,2.49-0.57,5.21-1.74,7.34c-1.21,2.2-3.21,4.43-5.41,5.4c-0.91,0.4-3.42-2.3-4.91-3.86
			c-5-5.24-9.88-10.61-14.79-15.94c-0.51-0.55-0.93-1.19-1.4-1.78C199.52,785.67,199.73,785.23,199.94,784.8z"/>
		<path d="M199.61,759.44c-3.18-3.25-4.6-6.46-4.37-10.53c0.43-7.9,0.87-15.82,0.8-23.73c-0.03-4.08-0.98-8.19-1.81-12.23
			c-0.79-3.82-0.25-4.62,3.66-3.92c1.68,0.3,3.34,0.89,4.93,1.53c2.46,0.99,2.88,2.66,2.67,5.42c-0.8,10.65-1.29,21.33-1.5,32.01
			C203.9,752.39,202.93,756.07,199.61,759.44z"/>
		<path class="st0" d="M159.55,716.32c-0.86-6.37-1.7-12.54-2.62-19.32c5.52-0.94,10.86-1.95,16.23-2.73
			c2.5-0.36,3.02,1.48,2.63,3.4c-0.96,4.72-2.01,9.42-3.27,14.06c-0.23,0.86-1.49,1.78-2.45,2.06
			C166.78,714.74,163.4,715.42,159.55,716.32z"/>
	</g>
</g>
<g id="_x37_">
	<path d="M859,328.5c0,0,24-1,19,11s-20-10-20-10S858,328.5,859,328.5z"/>
	<path d="M849.5,349c0,0-4-3,3-3s15,4,15,4s7,8-3,11C864.5,361,855.5,358,849.5,349z"/>
	<path d="M852.5,383c0,0-4-5,2-5s27-18,27-18s3,0,1,3s-21,25-21,25S858.5,392,852.5,383z"/>
	<path d="M897.5,325c0,0-2-5,3-4s8,4,8,4s1,1,0,3s-2,16-2,16l20-7c0,0,12-2,12,2s-32,12-32,12v14c0,0,1,4,7,4s23-4,23-4s10-1,11,5
		s-27,7-27,7s-22,1-22-12s0-12,0-12l-13,3c0,0-6,1-6-3c0,0,2-2,5-2l14-4v-19C898.5,328,898.5,325,897.5,325z"/>
	<path d="M842.5,400c0,0-4,2,2,5s8,3,8,3s5,0,6-1s34-4,34-4l-1,37c0,0,0,13,6,13c0,0,4-4,4-10s0-41,0-41l37-1c0,0,20,3,16-4
		s-17-6-17-6l-14,3l-22,2l1-13c0,0,2-4-1-6s-8-3-8-3s-4-1-3,3s2,7,2,7v12l-32,4H842.5z"/>
	<path d="M862.5,421c0,0,0-7,5-6s10,4,10,4s3,3,0,5s-11,8-11,8s-21,16-26,13c0,0-2-1,3-4S862.5,421,862.5,421z"/>
	<path d="M915.5,415c0,0,14,2,19,7c0,0,14,6,13,16s-6,6-6,6s-8-6-11-11s-12-14-12-14S914.5,416,915.5,415z"/>
</g>
<g id="_x36_">
	<path d="M434.5,522c0,0-10-4-11-20l4-19c0,0,11-111,1-125c0,0-6-8,5-6s11,3,11,3s27-7,31-12s21,9,21,9s2,2-3,5c0,0-25,25-23,31
		s7,11,7,11s29,28,1,44c0,0-22-18-26-20c0,0-3-4,8-1s12,1,12,1s7-1-3-21l-8-11c0,0-4-1,1-9s9-21,9-21s2-5-6-3s-19,5-19,5
		S444.5,525,434.5,522z"/>
	<path d="M534.5,331c0,0-3-7,7-5s16,6,16,6s3,2-2,10l-2,23l16-4c0,0,12-3,17,6c0,0,2,2-3,3c0,0-23,5-30,5v24c0,0,27-2,41-6
		s21,8,21,8s1,4-6,5s-30,1-30,1s6,4,0,8c0,0-8,25,4,24c0,0,14,2,22-2c0,0,10-1,13,8c0,0,3,5-15,5c0,0-23,3-32-5c0,0-5-2-5-20
		c0,0,1-15,0-17l-37,4l4,6c0,0-22,34-45,40c0,0-3-1,4-7s21-22,25-37l-12,2c0,0-17-3-16-9l51-6v-24c0,0-28,6-29-5c0,0,2-2,9-2l20-3
		l-1-25C539.5,342,538.5,332,534.5,331z"/>
	<path d="M534.5,435c8.44-4.22,22,5,22,5c-0.02,0.52-0.08,1.3-0.27,2.23c-0.45,2.31-1.29,3.77-1.73,4.77c-0.63,1.4-0.75,3.27-1,7
		c-0.23,3.51,0,11,0,11l0,0l7-1c2.84-1.06,5.24-1.65,7-2c0,0,0.83-0.17,6-1l0,0c0,0,0,0,8,5s-7,7-7,7l-23,3v23l37-3l12-3
		c0,0,17,2,21,10s-30,5-30,5l-27,1c-44,0-70,7-70,7c-21-2-19-11-19-11l64-5v-23c0,0-28,5-30-6c0,0-1-2,8-2s22-2,22-2s0-25-4-27
		C535.5,440,532.5,436,534.5,435z"/>
</g>
<g id="_x35_">
	<path d="M73.5,385c0,0,3-3,3-17c0,0,8-2,18,8c0,0,4,6,0,9s-18,26-18,26l-9,14c0,0,9,3,9,8c0,0-6,53-4,89c0,0-5,26-11,13s-5-16-5-16
		l6-26c0,0,4-58,0-62c0,0-17,20-32,30s-12,4-12,4l15-16c0,0,24-31,28-39S71.5,393,73.5,385z"/>
	<path d="M107.5,402c0,0,54-7,64-12s18,6,18,6s2,3-12,6s-33,5-33,5s12,6,4,14l-26,86l76-6c0,0,7-2,19,6s-7,7-7,7s-60-1-88,2l-26,5
		c0,0-12-1-18-6s5-4,5-4l27-2l23-88c0,0,1-12-1-12s-17,1-17,1s-11-2-13-5S107.5,402,107.5,402z"/>
	<path d="M101.5,451c0,0,45-3,68-11c0,0,4-4,17,4c0,0,8,4,5,9s-5,10-5,10l-13,42l-11,5c0,0-2-12,0-16s7-27,7-27s7-17-3-17l-55,9
		c0,0-7,3-14-4C97.5,455,93.5,452,101.5,451z"/>
</g>
<g id="_x34_">
	<path d="M983.5,32c0,0,7,0,3-5c0,0-7-6-13-3s-25,6-25,6s-17-8-15,0c0,0,3,9,2,26v40l-25,4h-11c0,0-5,5,3,7c0,0,7,4,13,2l23-5
		c0,0,0,10-17,27l-9,6c0,0-4,2,0,11c0,0,1,8,13,0l42-13c0,0,6,12,10,12s5-6,5-6s3-14-10-19l-9-4c0,0-6-3-1,7l3,6l-35,5l14-16l8-6
		c0,0,3-3-7-12l36-5h8c0,0,3-2,0-5s-9-5-9-5l-9,3l-25,4l1-15c0,0,3,2,13,0s17-3,17-3s8,0,2-4s-10-3-10-3l-10,2l-12,3V59
		c0,0,9,3,13,0l15-2c0,0,9-2,3-5s-8-4-8-4l-11,3l-12,3l2-17C949.5,37,976.5,36,983.5,32z"/>
	<path d="M1018.5,4c0,0,1-5,8-3s13,5,13,5s3,3,0,6c0,0-4,18-3,44c0,0,40-3,48-6c0,0,22,6,12,10c0,0-52,1-60,4v39l16-3c0,0,7-3,13,3
		c0,0,4,2-9,4s-20,3-20,3v14c0,0,16,0,40-6c0,0,23,6,13,10l-2,2c0,0-19-1-52,3c0,0,0,57-7,63c0,0-4,9-5-6s-1-56-1-56l-17,3
		c0,0-12,6-20-3c0,0,0-3,5-2l32-5c0-5,0-10,0-15c-5.33,0.67-10.67,1.33-16,2c0,0-14-5-6-6s22-3,22-3l1-39c0,0-14,0-23,4
		c0,0-12,0-15-4s0-4,0-4l38-4l1-39L1018.5,4z"/>
	<path d="M1007.5,43c0,0-9,2-12-3c0,0-1-3,10-3c0,0,37-3,43-6s10-4,10-4s12,5,15,10c0,0,4,2-2,6l-10,35c0,0,9,5,4,7l-63,7
		c0,0-12-8-2-8s50-6,50-6s8-34,4-39L1007.5,43z"/>
</g>
<g id="_x33_">
	<path d="M664.5,4c0,0,3-5,7,0s5,6,5,6s4,4-2,7s-9,7-9,7l-8,8l30-3l-5-10c0,0,0-3,7,0l11,5c0,0,9,8,2,15c0,0-4,4-12-6l-31,8
		c0,0-6,1-14,5c0,0-6-1-7-11c0,0,2-3,6-3s13-13,13-13l5-8L664.5,4z"/>
	<path d="M630.5,45c0,0,0-5,5-2l6,8c0,0,3,4-1,5s-6,4-6,4l-11,11l28-3c0,0-3-8-5-9c0,0-2-4,4-2s11,5,11,5l2,4c0,0,2,9-2,9
		c0,0-3,3-8-3l-37,11l-5,3c0,0-6-7-5-13l3-2C609.5,71,619.5,70,630.5,45z"/>
	<path d="M687.5,44c0,0,1-8,6-2c0,0,9,7,6,10l-5,3l-9,10c0,0,7,1,24-2l-4-8c0,0-4-5,3-3s15,7,15,7s5,4,4,10s-2,7-2,7s-4,4-8-3l-5-6
		c0,0-35,9-38,12c0,0-6-5-5-10l1-2C670.5,67,682.5,62,687.5,44z"/>
	<path d="M660.5,82l2-3c0,0,0-8,5-5s10,9,10,9s2,2-3,3c0,0,13,11,41,22c0,0,11,5,42,8s-29,14-29,14s-8,0-15-6c0,0-35-27-44-33
		c0,0-32,29-42,34c0,0-20,14-38,16c0,0-6,0,1-3c0,0,17-8,19-10l26-19l11-10L660.5,82z"/>
	<path d="M667.5,104c0,0,0-6,4-4s9,9,9,9s2,2-4,4c0,0-30,27-47,27c0,0-1-2,4-4l10-6l13-11l7-7C663.5,112,666.5,108,667.5,104z"/>
	<path d="M675.5,124c0,0,0-7,5-2c0,0,8,6,7,8s-6,5-6,5s-33,28-49,26c0,0-2-1,6-4s16-10,16-10l13-12C667.5,135,674.5,128,675.5,124z"
		/>
	<path d="M683.5,146l2-5l2-1c0,0,14,8,12,13l-4,3c0,0,0-1-9,5c0,0-25,20-56,27c0,0-11,3-13,2s3-2,3-2l20-9
		C640.5,179,665.5,167,683.5,146z"/>
</g>
<g id="_x32_">
	<path d="M388.5,35l-2-3l-6-3l-4-2h-3l-5,1l-7,1l-1-5v-5l1-4c0,0,1-4-6-5s-10-1-10-1s-4,0-2,4c0,0,5,5,7,18l-3,1c0,0-54,9-55,8
		c0,0-5,3,5,6c0,0,5,3,12,0l43-6c0,0,9,49,19,71c0,0,23,58,46,64c0,0,11,4,9-3l-4-12c0,0-3-7-4-25c0,0-1-5-4,13s-20-12-20-12
		s-30-49-32-98h15l9-1L388.5,35z"/>
	<path d="M300.5,61l5,3c0,0,12,1,27-3l9-2c0,0,7-1,0-4s-13-1-13-1l-14,3l-11,2C303.5,59,300.5,59,300.5,61z"/>
	<path d="M278.5,78h-2c0,0-8,1-2,5s10,4,10,4l13-4c0,0,44-9,50-8l5-1c0,0,2-3-2-4c0,0-2-3-14-2C336.5,68,281.5,79,278.5,78z"/>
	<path d="M294.5,93l2-2l4,1l5,1l28-4l5-2h3l6,2l5,4l1,3l-3,3l-1,6v22v10c0,0-3,7-5,8s-4-2-4-2l-1-4l-16,1l-9,1c0,0,6,2,6,6
		c0,0,0,1-2,3c0,0-4,2-9,7s-15,12-15,12s-12,7-14,6s2-3,2-3s21-20,23-24s2-7,2-7h-4c0,0-2,10-6,0c0,0-4-5-2-8s8,3,8,3l30-4l5,3l1-4
		v-8l-31,4h-4l-1,11l-7-3c0,0-2,0,0-5s1-12,1-12l7,5l25-4c0,0,8-1,10,0v-10c0,0-30,5-32,4s-2-1-2-1l-1,13l-5-1c0,0-3-4-1-15h7l24-4
		c0,0,2-2,10,0v-8c0,0-1-2-5-3l-18,2l-11,1l-1,15l-6,2v-12c0,0-2-6-3-6S294.5,93,294.5,93z"/>
	<path d="M331.5,145c0,0,1-2,11,4s11,8,11,8s8,13,0,16c0,0-2,2-7-5s-10-14-10-14l-5-6C331.5,148,329.5,145,331.5,145z"/>
	<path d="M385,15.5l2,4l8,11l4,6l5,3l2.5-0.5l2-3c0,0,3-8-4-15C404.5,21,387.5,13,385,15.5z"/>
	<path d="M295.5,96l7,2l-2,41l-4-8c0,0,2-28,1-30S295.5,96,295.5,96z"/>
</g>
<g id="_x31_">
	<polygon points="29,28.5 42.5,26 57.5,19 57.5,8 54.5,3 55.5,0 58.5,0 71.5,5 71.5,8 71.5,12 72.5,13 76.5,13 80.5,14 82.5,17 
		84.5,20 84.5,23 82.5,25 74.5,29 71.5,30 69.5,31 68.5,35 69.5,38 72.5,39 76.5,39 81.5,40 83.5,43 83.5,46 81.5,48 78.5,49 
		71.5,51 54.5,54 42.5,57 37.5,57 29.5,52 29.5,51 36.5,49 46.5,46 54.5,43 55.5,40 56.5,35 55.5,34 48.5,35 40.5,34 36.5,32 	"/>
	<path d="M0,54.5c0,0,11,16,1,36L0.5,99l1,3l1,1l1,3l2,1l2-1l5-6l4-11l1-5v-6c0,0,40-12,59-12c0,0,21-2,34-1l5,3c0,0,0,9-5,14v1l1,1
		l2-2l4-2l4-1l5-2l7-3l4-4l1-5l-1-1l-9-6l-6-4h-3l-5,2l-14,1c0,0-53,2-82,14l-6-7l-3-4l-5-3L0,54.5z"/>
	<path d="M31.5,86l8,3l7,1h4l10-3l9-2l7-1l2-1l1-3v-1l-2-2l-2-2l-4-1l-6,1l-8,3l-12,4l-6,2C39.5,84,31.5,84,31.5,86z"/>
	<path d="M46.5,111l-19-6l2,3l6,6l1,7l2,8l3,9l4-2l4-2l8-3l12-2l3-1l2,3l1,1v6l-5,8l-3,7l-2,4l-1,1l-16,2l1-4v-4c0,0,3-4,4-9
		c0,0-7,2-8,3h-3c0,0-9-8-12-4l6,7l3,6l4,6l-27,6h-6h-3l-1,2l2,1l4,4l3,1h4h5l7-2l11-2l16-2l14-1h15h14l4,1l3,2l6-1l1-2l-3-7v-2
		l-4-3h-2h-5h-7h-7l-8,1h-5l5-6l7-7l2-2l1-1v-2l-4-4l-6-5l-2-2h-3l5-2l3-1l1-4l-1-2l3-6l3-6l2-1l1-4l-2-2l-3-2l-3-1l-6-3l-6,2l-8,1
		l-10,2l-9,2l-6,2l-7,1c0,0-8,0,3,5s10,3,10,3l9-3l8-2l5-1h7l1,1l-1,5v4l-2,2h-3l-6,3l-11,1h-3l-2-4v-5V111z"/>
</g>
</svg>
