<?xml version="1.0" encoding="utf-8"?>
<!-- Generator: Adobe Illustrator 23.0.1, SVG Export Plug-In . SVG Version: 6.00 Build 0)  -->
<svg id="words" version="1.1" xmlns="http://www.w3.org/2000/svg" xmlns:xlink="http://www.w3.org/1999/xlink" x="0px" y="0px"
	 viewBox="0 0 201.15 198.15" style="enable-background:new 0 0 201.15 198.15;" xml:space="preserve">
<style type="text/css">
	.st0{fill:#FFFFFF;}
</style>
<g id="_x31_0">
	<g>
		<path d="M-23.07,703.97c-7.58,6.11-15.45,11.91-22.67,18.42c-7.37,6.64-12.07,6.72-18.45-0.99c-0.98-1.18-1.68-2.6-2.92-4.56
			c3.36-1.17,6.42-1.85,9.12-3.23c11.56-5.9,23.05-11.93,34.45-18.13c1.16-0.63,2.13-2.67,2.17-4.09c0.22-6.97,0.1-13.96,0.1-21.43
			c-9.83-0.42-20.79,6.05-30.25-1.72c-0.01-0.54-0.01-1.08-0.02-1.62c10.28-1.64,20.57-3.27,30.91-4.92
			c-0.16-15.27,1.32-29.73-3.15-43.85c-1.5-4.75,0.05-6.42,4.99-5.02c4.46,1.26,8.83,3.36,12.75,5.85c2.97,1.89,3.04,5,1.14,8.36
			c-5.68,10.05-4.74,21.37-6.4,33.04c3.14-1.14,5.45-2.64,7.77-2.67c3.62-0.04,7.32,0.67,10.84,1.59c1.13,0.29,1.82,2.26,2.71,3.46
			c-1.22,0.89-2.32,2.26-3.67,2.57c-5.86,1.34-11.78,2.38-18.18,3.62c0,6.42,0,13.2,0,20.13c3.8-1.92,7.73-3.91,11.65-5.89
			c0.4,0.66,0.79,1.32,1.19,1.98c-2.28,1.97-4.37,4.26-6.89,5.85c-5.28,3.33-7.57,7.45-7.24,14.06c0.71,14.61,0.67,29.27,0.54,43.91
			c-0.07,7.92-0.32,16-6.88,22.04c-1.99,1.83-3.87,2.34-5.7,0.12c-5.83-7.08-11.56-14.24-17.98-22.16c3.48,0.67,6.53,1.2,9.55,1.85
			c7.31,1.56,9.16,0.6,9.68-6.66c0.95-13.05,1.41-26.13,2.07-39.21C-22.26,704.44-22.67,704.21-23.07,703.97z"/>
		<path d="M51.81,640.81c10.45,12.56,20.92,25.33,34.98,33.95c13.51,8.29,27.92,15.13,43.17,23.27c-4.59,0.76-7.92,1.46-11.27,1.84
			c-5.98,0.67-12,1.04-17.98,1.74c-9.14,1.07-15.67-3.2-20.59-10.23c-9.78-13.99-19.3-28.16-28.94-42.25
			c-0.51-0.75-1.1-1.45-1.62-2.13c-7.66,12.1-14.6,24.5-22.94,35.87c-8.45,11.53-19.49,20.56-32.09,27.45
			c-0.32-0.26-0.65-0.52-0.97-0.78c0.84-1.28,1.53-2.7,2.56-3.81c16.11-17.35,28.57-37.08,38.36-58.56
			c2.85-6.26,5.14-12.64,4.21-19.71c-0.43-3.23,1.23-5.04,4.03-3.54c4.06,2.18,8.16,4.81,11.14,8.21c1.22,1.39-0.43,5.3-0.78,8.07
			C52.65,640.41,52.23,640.61,51.81,640.81z"/>
		<path d="M81.28,760.17c-7.36,0.59-13.43,1.22-19.52,1.53c-9.21,0.47-18.44,0.72-27.66,1.04c-3.2,0.11-6.09,0.37-6.09,4.78
			c0,1.01-1.39,2.02-2.13,3.02c-1.15-0.94-3.05-1.71-3.32-2.86c-0.97-4.15-1.45-8.42-1.99-12.67c-0.75-5.81-0.91-11.76-2.24-17.43
			c-1.03-4.42-3.46-8.51-5.64-13.64c1.55-0.17,3.94-1.17,5.7-0.5c7.87,2.99,15.65,1.03,23.3-0.23c10.6-1.74,21.07-4.32,31.59-6.59
			c4.45-0.96,14.12,3.83,15.52,8.05c0.39,1.16,0.1,2.78-0.41,3.96c-2.49,5.72-5.49,11.24-7.65,17.07
			C79.08,750.13,75.64,754.76,81.28,760.17z M27.44,731.1c0.47,8.62,0.92,16.62,1.36,24.75c1.31,0.09,2.09,0.25,2.86,0.18
			c10.58-0.99,21.15-1.95,31.72-3.08c2.23-0.24,3.92-1.17,4.25-4.07c0.43-3.74,1.71-7.37,2.49-11.08
			c2.67-12.78,2.29-13.61-10.58-12.2C48.75,726.78,38.09,729.23,27.44,731.1z"/>
		<path d="M22.78,695.75c11.37-2.48,22.81-4.65,34.06-7.59c4.68-1.22,8.72-0.64,12.75,1.23c1.36,0.63,2.23,2.31,3.32,3.51
			c-1.14,0.97-2.18,2.64-3.43,2.81c-13.11,1.74-26.24,3.46-39.41,4.62c-2.57,0.23-5.36-1.96-8.04-3.03
			C22.27,696.79,22.53,696.27,22.78,695.75z"/>
		<path class="st0" d="M27.44,731.1c10.64-1.87,21.31-4.32,32.11-5.5c12.87-1.41,13.25-0.58,10.58,12.2
			c-0.78,3.71-2.06,7.34-2.49,11.08c-0.33,2.9-2.03,3.84-4.25,4.07c-10.56,1.12-21.14,2.09-31.72,3.08
			c-0.77,0.07-1.55-0.09-2.86-0.18C28.36,747.72,27.92,739.72,27.44,731.1z"/>
	</g>
</g>
<g id="_x39_">
	<g>
		<path d="M-348.81,774.35c2.16-3,4.37-5.98,6.47-9.02c9.17-13.27,16.55-27.52,22.36-42.52c3.35-8.66,5.97-17.62,8.54-26.55
			c0.9-3.11,0.79-6.54,0.94-9.84c0.1-2.16,1.03-3.06,3.14-3.09c4.09-0.05,14.51,7.42,15.38,11.36c0.22,1-0.51,2.33-1.05,3.37
			c-3.79,7.35-7.64,14.66-11.47,21.99c0.28,0.37,0.56,0.74,0.84,1.1c5-1.24,10.07-2.26,14.98-3.79c5.41-1.69,10.54-4.33,16.01-5.72
			c8.41-2.14,14.96,2.28,20.92,7.46c1.85,1.6,1.89,4.06,0.58,6.28c-0.58,0.98-1.14,2.01-1.91,2.82
			c-10.41,10.73-16.31,24.34-23.7,37.01c-3.67,6.29-7.38,12.56-10.92,18.92c-0.45,0.81-0.46,2.52,0.09,3.15
			c11.62,13.32,23.2,26.66,36.99,37.88c10.05,8.17,21.91,12.92,33.51,18.21c3.51,1.6,6.88,3.49,10.29,5.3
			c0.35,0.19,0.54,0.69,1.11,1.44c-1.04,0.63-1.87,1.46-2.85,1.69c-10.59,2.58-21.05,5.94-32.19,5.28
			c-3.71-0.22-7.05-1.25-9.41-4.13c-4.92-5.98-10.06-11.84-14.36-18.25c-9.18-13.71-17.87-27.74-26.76-41.64
			c-0.36-0.56-0.75-1.11-1.27-1.88c-5.15,6.57-10.04,13.09-15.23,19.36c-14.1,17-30.01,31.92-50.09,41.71
			c-4.5,2.19-9.42,3.51-14.15,5.22c-0.27-0.45-0.53-0.89-0.8-1.34c1.66-1.56,3.23-3.24,4.99-4.66
			c13.69-11.03,27.46-22.03,39.02-35.33c20.19-23.24,37.48-48.47,49.81-76.84c1.45-3.33,2.68-6.77,3.67-10.26
			c1.17-4.15-0.96-6.33-5.24-5.62c-1.11,0.18-2.14,0.8-3.25,1.01c-6.68,1.27-13.33,2.74-20.07,3.59c-2.79,0.35-4.49,1.1-5.9,3.59
			c-7.82,13.88-16.7,26.97-29.16,37.22c-2.82,2.32-5.75,4.51-8.63,6.76C-348.01,775.17-348.41,774.76-348.81,774.35z"/>
		<path d="M-385.44,811.1c0-13.57,0-26.45,0-39.85c-4.08,0.65-7.59,1.57-11.13,1.7c-4.62,0.17-9.27-0.23-13.9-0.53
			c-0.96-0.06-2.08-0.55-2.77-1.21c-0.83-0.79-1.66-1.94-1.76-3c-0.05-0.49,1.56-1.47,2.53-1.67c6.02-1.24,12.08-2.26,18.1-3.47
			c2.88-0.58,5.71-1.4,9.35-2.31c-0.73-10.26-1.44-20.48-2.19-30.68c-0.04-0.56-0.3-1.1-0.45-1.65c-1.63-6.06-1.73-5.84-7.87-5.3
			c-5.43,0.48-10.95,0.51-16.38,0.06c-2.58-0.22-5.03-2.02-7.53-3.11c0.01-0.49,0.03-0.97,0.04-1.46c1.09-0.52,2.12-1.27,3.26-1.51
			c13.13-2.76,26.3-5.31,39.4-8.22c5.41-1.2,10.68-3.1,15.98-4.77c5.88-1.85,10.97-0.15,15.61,3.39c2.16,1.64,1.87,3.51-0.57,4.39
			c-4.36,1.57-8.82,2.93-13.31,4.06c-5.45,1.37-10.99,2.42-17.06,3.98c8.66,1.57,7.29,6.96,6.39,13.02
			c-1.18,7.97-1.18,16.12-1.68,24.04c4.18-0.62,8.04-1.67,11.88-1.61c3.32,0.05,6.66,1.24,9.91,2.21c1.13,0.34,2,1.55,2.99,2.36
			c-1.07,1.04-1.97,2.62-3.25,3.01c-4.44,1.38-9.01,2.37-13.53,3.47c-8.48,2.08-8.51,2.07-8.53,10.77
			c-0.03,9.56-0.01,19.11-0.01,29.11c3.91-1.3,8.03-2.69,12.16-4.04c5.83-1.91,11.64-3.87,17.52-5.6c0.99-0.29,2.29,0.47,3.45,0.75
			c-0.7,0.9-1.21,2.16-2.13,2.64c-12.67,6.68-25.56,12.97-38.07,19.94c-9.93,5.53-19.37,11.95-29.16,17.76
			c-1.41,0.84-3.81,1.19-5.25,0.58c-5.54-2.35-10.27-5.99-13.41-11.23c-2.17-3.62-1.31-4.7,2.78-5.15c3.71-0.41,7.46-1,11.02-2.08
			C-403.63,817.09-394.38,813.97-385.44,811.1z"/>
	</g>
</g>
<g id="_x38_">
	<g>
		<path d="M-777.11,716.59c-8.44-0.17-17.19,4.91-24.76-2.99c8.21-1.4,16.42-2.8,25.01-4.27c0.6-13.73,1.47-27.2-2.7-40.41
			c-0.38-1.2-0.36-3.2,0.36-3.89c0.75-0.71,2.74-0.69,3.92-0.25c3.18,1.17,6.29,2.6,9.3,4.15c2.87,1.48,3.31,3.79,2.13,6.82
			c-3.53,9.06-5.06,21.28-4.07,31.17c1.31-0.41,2.62-0.64,3.78-1.2c3.3-1.6,6.3-0.65,9.1,1.1c0.89,0.55,1.76,1.75,1.87,2.74
			c0.06,0.59-1.27,1.71-2.15,1.96c-3.47,0.98-7.03,1.62-10.5,2.6c-0.93,0.26-2.3,1.22-2.37,1.96c-0.55,5.97-0.83,11.97-1.24,18.77
			c3.41-1.78,6.08-3.18,8.76-4.56c2.4-1.24,4.44-3.69,8.06-1.79c-4.32,3.27-8.49,6.76-13,9.72c-3.3,2.17-4.42,4.67-4.33,8.62
			c0.27,12.66,0.47,25.35-0.09,37.99c-0.21,4.75-2.07,9.63-4.09,14.04c-2.01,4.38-5.15,4.07-8.12,0.45
			c-4.08-4.97-8.57-9.58-12.88-14.36c-0.83-0.92-1.62-1.87-2.43-2.81c0.2-0.33,0.4-0.65,0.6-0.98c3.93,1.07,7.86,2.15,11.8,3.22
			c2.49,0.68,5.09,0.49,5.37-2.46c1.05-11.14,1.74-22.32,2.56-33.48c-0.46-0.21-0.91-0.42-1.37-0.63
			c-6.49,5.1-13.27,9.89-19.36,15.43c-2.9,2.65-5.05,3.59-8.26,1.32c-0.43-0.3-1.11-0.34-1.43-0.71c-1.98-2.28-3.89-4.62-5.82-6.93
			c2.28-0.82,4.66-1.42,6.81-2.5c9.46-4.74,18.86-9.6,28.23-14.51c0.65-0.34,1.22-1.48,1.23-2.26
			C-777.07,730.8-777.11,723.94-777.11,716.59z"/>
		<path d="M-753.8,690.69c2.55,0,4.43-0.3,6.18,0.05c8.89,1.75,16.87-1.35,24.79-4.53c4.17-1.68,11.99,0.04,14.29,3.85
			c0.53,0.87,0.38,2.56-0.1,3.56c-3.18,6.69-6.54,13.29-9.74,19.71c1.63,1.51,2.71,2.51,4.59,4.25c-8.82,1.17-16.51,2.18-25.18,3.33
			c2.59,1.68,4.46,2.82,6.26,4.07c2.4,1.67,3.56,3.5,1.22,6.28c-1.33,1.59-2.12,3.64-3.7,6.46c4.62-1.05,8.36-1.65,11.92-2.77
			c4.33-1.37,10.01-0.17,12.86,3.43c0.67,0.85,1.21,2.66,0.77,3.4c-4.74,7.95-4.48,17.19-6.89,25.72
			c-1.63,5.76-3.2,11.59-5.56,17.06c-1.2,2.76-3.85,5.1-6.3,7.07c-3.17,2.54-5.33,1.64-7.26-1.96c-2.02-3.77-4.32-7.4-6.46-11.11
			c-0.23-0.4-0.19-0.95-0.41-2.23c2.61,1.37,4.62,2.51,6.71,3.51c3.82,1.83,6.25,1.11,7.84-2.7c4.25-10.22,6.43-20.96,7.43-31.94
			c0.37-4-1.27-5.62-5.21-5.17c-3.55,0.4-7.11,1.27-10.5,2.41c-1.24,0.42-2.33,2.06-2.96,3.4c-5.76,12.21-14.44,21.89-25.34,29.68
			c-0.65,0.47-1.37,0.85-2.09,1.21c-0.31,0.16-0.69,0.17-2.35,0.54c2.18-2.72,3.64-4.6,5.16-6.44c9.65-11.7,17.11-24.62,21.72-39.1
			c1.08-3.39,2.01-6.54-1.25-9.83c-1.62-1.63-1.54-4.99-2.12-7.59c-1.12-5.08-1.85-10.28-3.37-15.23
			C-749.7,696.33-751.82,693.95-753.8,690.69z M-738.41,715.79c3.85-0.9,7.23-1.58,10.53-2.53c0.96-0.28,2.22-1.19,2.45-2.06
			c1.26-4.64,2.31-9.35,3.27-14.06c0.39-1.92-0.13-3.76-2.63-3.4c-5.37,0.78-10.71,1.79-16.23,2.73
			C-740.1,703.25-739.27,709.43-738.41,715.79z"/>
		<path d="M-698.02,784.27c3.06,1.09,6.08,2.28,9.17,3.23c5.9,1.82,7.8,0.42,8.05-5.77c0.28-6.95,0.62-13.89,0.73-20.84
			c0.33-20.45,0.58-40.9,0.82-61.35c0.11-9.44-0.24-18.77-4.67-27.5c-1.53-3.01,0.04-4.97,3.32-3.99c4.31,1.3,8.51,3.15,12.51,5.24
			c2.32,1.21,2.67,3.38,1.75,6.24c-1.5,4.66-2.97,9.57-3.06,14.41c-0.53,28.81-0.68,57.63-0.93,86.44
			c-0.04,4.68,0.18,9.37-0.08,14.03c-0.14,2.49-0.57,5.21-1.74,7.34c-1.21,2.2-3.21,4.43-5.41,5.4c-0.91,0.4-3.42-2.3-4.91-3.86
			c-5-5.24-9.88-10.61-14.79-15.94c-0.51-0.55-0.93-1.19-1.4-1.78C-698.44,785.14-698.23,784.71-698.02,784.27z"/>
		<path d="M-698.35,758.91c-3.18-3.25-4.6-6.46-4.37-10.53c0.43-7.9,0.87-15.82,0.8-23.73c-0.03-4.08-0.98-8.19-1.81-12.23
			c-0.79-3.82-0.25-4.62,3.66-3.92c1.68,0.3,3.34,0.89,4.93,1.53c2.46,0.99,2.88,2.66,2.67,5.42c-0.8,10.65-1.29,21.33-1.5,32.01
			C-694.06,751.86-695.03,755.55-698.35,758.91z"/>
		<path class="st0" d="M-738.41,715.79c-0.86-6.37-1.7-12.54-2.62-19.32c5.52-0.94,10.86-1.95,16.23-2.73
			c2.5-0.36,3.02,1.48,2.63,3.4c-0.96,4.72-2.01,9.42-3.27,14.06c-0.23,0.86-1.49,1.78-2.45,2.06
			C-731.18,714.22-734.55,714.89-738.41,715.79z"/>
	</g>
</g>
<g id="_x37_">
	<path d="M-38.96,327.97c0,0,24-1,19,11s-20-10-20-10S-39.96,327.97-38.96,327.97z"/>
	<path d="M-48.46,348.47c0,0-4-3,3-3s15,4,15,4s7,8-3,11C-33.46,360.47-42.46,357.47-48.46,348.47z"/>
	<path d="M-45.46,382.47c0,0-4-5,2-5s27-18,27-18s3,0,1,3s-21,25-21,25S-39.46,391.47-45.46,382.47z"/>
	<path d="M-0.46,324.47c0,0-2-5,3-4s8,4,8,4s1,1,0,3s-2,16-2,16l20-7c0,0,12-2,12,2s-32,12-32,12v14c0,0,1,4,7,4s23-4,23-4
		s10-1,11,5s-27,7-27,7s-22,1-22-12s0-12,0-12l-13,3c0,0-6,1-6-3c0,0,2-2,5-2l14-4v-19C0.54,327.47,0.54,324.47-0.46,324.47z"/>
	<path d="M-55.46,399.47c0,0-4,2,2,5s8,3,8,3s5,0,6-1s34-4,34-4l-1,37c0,0,0,13,6,13c0,0,4-4,4-10s0-41,0-41l37-1c0,0,20,3,16-4
		s-17-6-17-6l-14,3l-22,2l1-13c0,0,2-4-1-6s-8-3-8-3s-4-1-3,3s2,7,2,7v12l-32,4H-55.46z"/>
	<path d="M-35.46,420.47c0,0,0-7,5-6s10,4,10,4s3,3,0,5s-11,8-11,8s-21,16-26,13c0,0-2-1,3-4S-35.46,420.47-35.46,420.47z"/>
	<path d="M17.54,414.47c0,0,14,2,19,7c0,0,14,6,13,16s-6,6-6,6s-8-6-11-11s-12-14-12-14S16.54,415.47,17.54,414.47z"/>
</g>
<g id="_x36_">
	<path d="M-463.46,521.47c0,0-10-4-11-20l4-19c0,0,11-111,1-125c0,0-6-8,5-6s11,3,11,3s27-7,31-12s21,9,21,9s2,2-3,5
		c0,0-25,25-23,31s7,11,7,11s29,28,1,44c0,0-22-18-26-20c0,0-3-4,8-1s12,1,12,1s7-1-3-21l-8-11c0,0-4-1,1-9s9-21,9-21s2-5-6-3
		s-19,5-19,5S-453.46,524.47-463.46,521.47z"/>
	<path d="M-363.46,330.47c0,0-3-7,7-5s16,6,16,6s3,2-2,10l-2,23l16-4c0,0,12-3,17,6c0,0,2,2-3,3c0,0-23,5-30,5v24c0,0,27-2,41-6
		s21,8,21,8s1,4-6,5s-30,1-30,1s6,4,0,8c0,0-8,25,4,24c0,0,14,2,22-2c0,0,10-1,13,8c0,0,3,5-15,5c0,0-23,3-32-5c0,0-5-2-5-20
		c0,0,1-15,0-17l-37,4l4,6c0,0-22,34-45,40c0,0-3-1,4-7s21-22,25-37l-12,2c0,0-17-3-16-9l51-6v-24c0,0-28,6-29-5c0,0,2-2,9-2l20-3
		l-1-25C-358.46,341.47-359.46,331.47-363.46,330.47z"/>
	<path d="M-363.46,434.47c8.44-4.22,22,5,22,5c-0.02,0.52-0.08,1.3-0.27,2.23c-0.45,2.31-1.29,3.77-1.73,4.77
		c-0.63,1.4-0.75,3.27-1,7c-0.23,3.51,0,11,0,11l0,0l7-1c2.84-1.06,5.24-1.65,7-2c0,0,0.83-0.17,6-1l0,0c0,0,0,0,8,5s-7,7-7,7l-23,3
		v23l37-3l12-3c0,0,17,2,21,10s-30,5-30,5l-27,1c-44,0-70,7-70,7c-21-2-19-11-19-11l64-5v-23c0,0-28,5-30-6c0,0-1-2,8-2s22-2,22-2
		s0-25-4-27C-362.46,439.47-365.46,435.47-363.46,434.47z"/>
</g>
<g id="_x35_">
	<path d="M-824.46,384.47c0,0,3-3,3-17c0,0,8-2,18,8c0,0,4,6,0,9s-18,26-18,26l-9,14c0,0,9,3,9,8c0,0-6,53-4,89c0,0-5,26-11,13
		s-5-16-5-16l6-26c0,0,4-58,0-62c0,0-17,20-32,30s-12,4-12,4l15-16c0,0,24-31,28-39S-826.46,392.47-824.46,384.47z"/>
	<path d="M-790.46,401.47c0,0,54-7,64-12s18,6,18,6s2,3-12,6s-33,5-33,5s12,6,4,14l-26,86l76-6c0,0,7-2,19,6s-7,7-7,7s-60-1-88,2
		l-26,5c0,0-12-1-18-6s5-4,5-4l27-2l23-88c0,0,1-12-1-12s-17,1-17,1s-11-2-13-5S-790.46,401.47-790.46,401.47z"/>
	<path d="M-796.46,450.47c0,0,45-3,68-11c0,0,4-4,17,4c0,0,8,4,5,9s-5,10-5,10l-13,42l-11,5c0,0-2-12,0-16s7-27,7-27s7-17-3-17
		l-55,9c0,0-7,3-14-4C-800.46,454.47-804.46,451.47-796.46,450.47z"/>
</g>
<g id="_x34_">
	<path d="M85.54,31.47c0,0,7,0,3-5c0,0-7-6-13-3s-25,6-25,6s-17-8-15,0c0,0,3,9,2,26v40l-25,4h-11c0,0-5,5,3,7c0,0,7,4,13,2l23-5
		c0,0,0,10-17,27l-9,6c0,0-4,2,0,11c0,0,1,8,13,0l42-13c0,0,6,12,10,12s5-6,5-6s3-14-10-19l-9-4c0,0-6-3-1,7l3,6l-35,5l14-16l8-6
		c0,0,3-3-7-12l36-5h8c0,0,3-2,0-5s-9-5-9-5l-9,3l-25,4l1-15c0,0,3,2,13,0s17-3,17-3s8,0,2-4s-10-3-10-3l-10,2l-12,3v-15
		c0,0,9,3,13,0l15-2c0,0,9-2,3-5s-8-4-8-4l-11,3l-12,3l2-17C51.54,36.47,78.54,35.47,85.54,31.47z"/>
	<path d="M120.54,3.47c0,0,1-5,8-3s13,5,13,5s3,3,0,6c0,0-4,18-3,44c0,0,40-3,48-6c0,0,22,6,12,10c0,0-52,1-60,4v39l16-3
		c0,0,7-3,13,3c0,0,4,2-9,4s-20,3-20,3v14c0,0,16,0,40-6c0,0,23,6,13,10l-2,2c0,0-19-1-52,3c0,0,0,57-7,63c0,0-4,9-5-6s-1-56-1-56
		l-17,3c0,0-12,6-20-3c0,0,0-3,5-2l32-5c0-5,0-10,0-15c-5.33,0.67-10.67,1.33-16,2c0,0-14-5-6-6s22-3,22-3l1-39c0,0-14,0-23,4
		c0,0-12,0-15-4s0-4,0-4l38-4l1-39L120.54,3.47z"/>
	<path d="M109.54,42.47c0,0-9,2-12-3c0,0-1-3,10-3c0,0,37-3,43-6s10-4,10-4s12,5,15,10c0,0,4,2-2,6l-10,35c0,0,9,5,4,7l-63,7
		c0,0-12-8-2-8s50-6,50-6s8-34,4-39L109.54,42.47z"/>
</g>
<g id="_x33_">
	<path d="M-233.46,3.47c0,0,3-5,7,0s5,6,5,6s4,4-2,7s-9,7-9,7l-8,8l30-3l-5-10c0,0,0-3,7,0l11,5c0,0,9,8,2,15c0,0-4,4-12-6l-31,8
		c0,0-6,1-14,5c0,0-6-1-7-11c0,0,2-3,6-3s13-13,13-13l5-8L-233.46,3.47z"/>
	<path d="M-267.46,44.47c0,0,0-5,5-2l6,8c0,0,3,4-1,5s-6,4-6,4l-11,11l28-3c0,0-3-8-5-9c0,0-2-4,4-2s11,5,11,5l2,4c0,0,2,9-2,9
		c0,0-3,3-8-3l-37,11l-5,3c0,0-6-7-5-13l3-2C-288.46,70.47-278.46,69.47-267.46,44.47z"/>
	<path d="M-210.46,43.47c0,0,1-8,6-2c0,0,9,7,6,10l-5,3l-9,10c0,0,7,1,24-2l-4-8c0,0-4-5,3-3s15,7,15,7s5,4,4,10s-2,7-2,7s-4,4-8-3
		l-5-6c0,0-35,9-38,12c0,0-6-5-5-10l1-2C-227.46,66.47-215.46,61.47-210.46,43.47z"/>
	<path d="M-237.46,81.47l2-3c0,0,0-8,5-5s10,9,10,9s2,2-3,3c0,0,13,11,41,22c0,0,11,5,42,8s-29,14-29,14s-8,0-15-6c0,0-35-27-44-33
		c0,0-32,29-42,34c0,0-20,14-38,16c0,0-6,0,1-3c0,0,17-8,19-10l26-19l11-10L-237.46,81.47z"/>
	<path d="M-230.46,103.47c0,0,0-6,4-4s9,9,9,9s2,2-4,4c0,0-30,27-47,27c0,0-1-2,4-4l10-6l13-11l7-7
		C-234.46,111.47-231.46,107.47-230.46,103.47z"/>
	<path d="M-222.46,123.47c0,0,0-7,5-2c0,0,8,6,7,8c-1,2-6,5-6,5s-33,28-49,26c0,0-2-1,6-4s16-10,16-10l13-12
		C-230.46,134.47-223.46,127.47-222.46,123.47z"/>
	<path d="M-214.46,145.47l2-5l2-1c0,0,14,8,12,13l-4,3c0,0,0-1-9,5c0,0-25,20-56,27c0,0-11,3-13,2s3-2,3-2l20-9
		C-257.46,178.47-232.46,166.47-214.46,145.47z"/>
</g>
<g id="_x32_">
	<path d="M-509.46,34.47l-2-3l-6-3l-4-2h-3l-5,1l-7,1l-1-5v-5l1-4c0,0,1-4-6-5s-10-1-10-1s-4,0-2,4c0,0,5,5,7,18l-3,1c0,0-54,9-55,8
		c0,0-5,3,5,6c0,0,5,3,12,0l43-6c0,0,9,49,19,71c0,0,23,58,46,64c0,0,11,4,9-3l-4-12c0,0-3-7-4-25c0,0-1-5-4,13s-20-12-20-12
		s-30-49-32-98h15l9-1L-509.46,34.47z"/>
	<path d="M-597.46,60.47l5,3c0,0,12,1,27-3l9-2c0,0,7-1,0-4s-13-1-13-1l-14,3l-11,2C-594.46,58.47-597.46,58.47-597.46,60.47z"/>
	<path d="M-619.46,77.47h-2c0,0-8,1-2,5s10,4,10,4l13-4c0,0,44-9,50-8l5-1c0,0,2-3-2-4c0,0-2-3-14-2
		C-561.46,67.47-616.46,78.47-619.46,77.47z"/>
	<path d="M-603.46,92.47l2-2l4,1l5,1l28-4l5-2h3l6,2l5,4l1,3l-3,3l-1,6v22v10c0,0-3,7-5,8s-4-2-4-2l-1-4l-16,1l-9,1c0,0,6,2,6,6
		c0,0,0,1-2,3c0,0-4,2-9,7s-15,12-15,12s-12,7-14,6s2-3,2-3s21-20,23-24s2-7,2-7h-4c0,0-2,10-6,0c0,0-4-5-2-8s8,3,8,3l30-4l5,3l1-4
		v-8l-31,4h-4l-1,11l-7-3c0,0-2,0,0-5c2-5,1-12,1-12l7,5l25-4c0,0,8-1,10,0v-10c0,0-30,5-32,4s-2-1-2-1l-1,13l-5-1c0,0-3-4-1-15h7
		l24-4c0,0,2-2,10,0v-8c0,0-1-2-5-3l-18,2l-11,1l-1,15l-6,2v-12c0,0-2-6-3-6S-603.46,92.47-603.46,92.47z"/>
	<path d="M-566.46,144.47c0,0,1-2,11,4s11,8,11,8s8,13,0,16c0,0-2,2-7-5s-10-14-10-14l-5-6
		C-566.46,147.47-568.46,144.47-566.46,144.47z"/>
	<path d="M-512.96,14.97l2,4l8,11l4,6l5,3l2.5-0.5l2-3c0,0,3-8-4-15C-493.46,20.47-510.46,12.47-512.96,14.97z"/>
	<path d="M-602.46,95.47l7,2l-2,41l-4-8c0,0,2-28,1-30S-602.46,95.47-602.46,95.47z"/>
</g>
<g id="_x31_">
	<polygon points="-868.96,27.97 -855.46,25.47 -840.46,18.47 -840.46,7.47 -843.46,2.47 -842.46,-0.53 -839.46,-0.53 -826.46,4.47 
		-826.46,7.47 -826.46,11.47 -825.46,12.47 -821.46,12.47 -817.46,13.47 -815.46,16.47 -813.46,19.47 -813.46,22.47 -815.46,24.47 
		-823.46,28.47 -826.46,29.47 -828.46,30.47 -829.46,34.47 -828.46,37.47 -825.46,38.47 -821.46,38.47 -816.46,39.47 -814.46,42.47 
		-814.46,45.47 -816.46,47.47 -819.46,48.47 -826.46,50.47 -843.46,53.47 -855.46,56.47 -860.46,56.47 -868.46,51.47 -868.46,50.47 
		-861.46,48.47 -851.46,45.47 -843.46,42.47 -842.46,39.47 -841.46,34.47 -842.46,33.47 -849.46,34.47 -857.46,33.47 -861.46,31.47 
			"/>
	<path d="M-897.96,53.97c0,0,11,16,1,36l-0.5,8.5l1,3l1,1l1,3l2,1l2-1l5-6l4-11l1-5v-6c0,0,40-12,59-12c0,0,21-2,34-1l5,3
		c0,0,0,9-5,14v1l1,1l2-2l4-2l4-1l5-2l7-3l4-4l1-5l-1-1l-9-6l-6-4h-3l-5,2l-14,1c0,0-53,2-82,14l-6-7l-3-4l-5-3L-897.96,53.97z"/>
	<path d="M-866.46,85.47l8,3l7,1h4l10-3l9-2l7-1l2-1l1-3v-1l-2-2l-2-2l-4-1l-6,1l-8,3l-12,4l-6,2
		C-858.46,83.47-866.46,83.47-866.46,85.47z"/>
	<path d="M-851.46,110.47l-19-6l2,3l6,6l1,7l2,8l3,9l4-2l4-2l8-3l12-2l3-1l2,3l1,1v6l-5,8l-3,7l-2,4l-1,1l-16,2l1-4v-4c0,0,3-4,4-9
		c0,0-7,2-8,3h-3c0,0-9-8-12-4l6,7l3,6l4,6l-27,6h-6h-3l-1,2l2,1l4,4l3,1h4h5l7-2l11-2l16-2l14-1h15h14l4,1l3,2l6-1l1-2l-3-7v-2
		l-4-3h-2h-5h-7h-7l-8,1h-5l5-6l7-7l2-2l1-1v-2l-4-4l-6-5l-2-2h-3l5-2l3-1l1-4l-1-2l3-6l3-6l2-1l1-4l-2-2l-3-2l-3-1l-6-3l-6,2l-8,1
		l-10,2l-9,2l-6,2l-7,1c0,0-8,0,3,5s10,3,10,3l9-3l8-2l5-1h7l1,1l-1,5v4l-2,2h-3l-6,3l-11,1h-3l-2-4v-5V110.47z"/>
</g>
</svg>
